<svg width="26" height="26" viewBox="0 0 26 26" fill="none" xmlns="http://www.w3.org/2000/svg">
<path d="M23.3089 13.093V13.6479C23.3089 16.755 18.0911 19.2735 11.6551 19.2735C8.10251 19.2735 4.92328 18.5053 2.78571 17.2951C3.50645 20.0942 8.40461 22.4111 14.3444 22.4111C20.7805 22.4111 25.9982 19.6913 25.9982 16.5842C25.9982 15.218 24.987 14.0141 23.3089 13.093Z" fill="#FCC62D"/>
<path d="M14.3444 22.4111C7.90842 22.4111 2.69067 19.6913 2.69067 16.5842V20.3708C2.69067 23.4778 7.90842 25.9969 14.3444 25.9969C20.7805 25.9969 25.9982 23.4778 25.9982 20.3708V16.5842C25.9982 19.6913 20.7805 22.4111 14.3444 22.4111Z" fill="#E4AF18"/>
<path d="M4.03534 23.0157C4.29979 23.2573 4.59965 23.4886 4.93178 23.7082V19.992C4.59965 19.7634 4.29979 19.5236 4.03534 19.2735V23.0157Z" fill="#CE9912"/>
<path d="M23.7571 19.992V23.7082C24.0892 23.4891 24.3891 23.2573 24.6536 23.0157V19.2735C24.3896 19.5236 24.0897 19.7634 23.7571 19.992Z" fill="#CE9912"/>
<path d="M5.82822 24.2309C6.11149 24.3774 6.4109 24.5159 6.72466 24.6473V20.975C6.4109 20.8369 6.11149 20.6913 5.82822 20.538V24.2309Z" fill="#CE9912"/>
<path d="M21.9642 24.6468C22.278 24.516 22.5774 24.377 22.8606 24.2304V20.5375C22.5774 20.6908 22.278 20.8369 21.9642 20.9746V24.6468Z" fill="#CE9912"/>
<path d="M7.62112 24.9861C7.91068 25.0852 8.20964 25.1775 8.51757 25.2635V21.6267C8.20964 21.5352 7.91068 21.4371 7.62112 21.3326V24.9861Z" fill="#CE9912"/>
<path d="M20.1713 25.2635C20.4793 25.1775 20.7782 25.0852 21.0678 24.9861V21.3326C20.7782 21.4371 20.4793 21.5352 20.1713 21.6267V25.2635Z" fill="#CE9912"/>
<path d="M9.86221 25.5863C10.1549 25.6455 10.4543 25.6983 10.7587 25.7454V22.1399C10.4543 22.0893 10.1549 22.0328 9.86221 21.97V25.5863Z" fill="#CE9912"/>
<path d="M17.9302 25.7454C18.2345 25.6979 18.534 25.645 18.8266 25.5863V21.9696C18.534 22.0324 18.2345 22.0888 17.9302 22.1399V25.7454Z" fill="#CE9912"/>
<path d="M12.5515 25.9516C12.8465 25.9736 13.1459 25.9888 13.448 25.9996V22.4124C13.1459 22.4008 12.8465 22.3847 12.5515 22.3609V25.9516Z" fill="#CE9912"/>
<path d="M15.2409 26C15.543 25.9888 15.8424 25.974 16.1373 25.9521V22.3609C15.8424 22.3847 15.543 22.4008 15.2409 22.4129V26Z" fill="#CE9912"/>
<path d="M11.6551 15.6846C5.21909 15.6846 0.00134277 12.9648 0.00134277 9.85773V13.6443C0.00134277 16.7514 5.21909 19.2704 11.6551 19.2704C18.0911 19.2704 23.3089 16.7514 23.3089 13.6443V9.85773C23.3089 12.9648 18.0911 15.6846 11.6551 15.6846Z" fill="#E4AF18"/>
<path d="M1.34601 16.2893C1.61046 16.5309 1.91032 16.7621 2.24245 16.9818V13.2656C1.91032 13.037 1.61046 12.7972 1.34601 12.5475V16.2893Z" fill="#CE9912"/>
<path d="M21.0677 13.2656V16.9818C21.3999 16.7626 21.6997 16.5309 21.9642 16.2893V12.5471C21.7002 12.7972 21.4003 13.037 21.0677 13.2656Z" fill="#CE9912"/>
<path d="M3.13889 17.5044C3.42216 17.651 3.72157 17.7895 4.03533 17.9208V14.2485C3.72157 14.1105 3.42216 13.9648 3.13889 13.8115V17.5044Z" fill="#CE9912"/>
<path d="M19.2749 17.9204C19.5886 17.7895 19.888 17.651 20.1713 17.504V13.8111C19.888 13.9644 19.5886 14.1105 19.2749 14.2481V17.9204Z" fill="#CE9912"/>
<path d="M4.93179 18.2597C5.22134 18.3587 5.52031 18.451 5.82824 18.5371V14.9002C5.52031 14.8088 5.22134 14.7106 4.93179 14.6062V18.2597Z" fill="#CE9912"/>
<path d="M17.482 18.5371C17.7899 18.451 18.0889 18.3587 18.3784 18.2597V14.6062C18.0889 14.7106 17.7899 14.8088 17.482 14.9002V18.5371Z" fill="#CE9912"/>
<path d="M7.17288 18.8598C7.46557 18.919 7.76498 18.9719 8.06932 19.0189V15.4134C7.76498 15.3628 7.46557 15.3063 7.17288 15.2436V18.8598Z" fill="#CE9912"/>
<path d="M15.2409 19.0194C15.5452 18.9719 15.8446 18.919 16.1373 18.8603V15.2436C15.8446 15.3063 15.5452 15.3628 15.2409 15.4139V19.0194Z" fill="#CE9912"/>
<path d="M9.86221 19.2256C10.1571 19.2476 10.4566 19.2628 10.7587 19.2736V15.6864C10.4566 15.6748 10.1571 15.6586 9.86221 15.6349V19.2256Z" fill="#CE9912"/>
<path d="M12.5515 19.2735C12.8536 19.2623 13.1531 19.2475 13.448 19.2256V15.6344C13.1531 15.6582 12.8536 15.6743 12.5515 15.6864V19.2735Z" fill="#CE9912"/>
<path d="M23.0027 14.9267C21.8028 17.417 17.1799 19.2735 11.6551 19.2735C9.59149 19.2735 7.65427 19.0136 5.97299 18.5595C7.59914 19.6635 10.4933 20.6029 14.3444 20.6029C20.477 20.6029 24.2053 18.2224 24.2053 16.5842C24.2053 16.0374 23.7844 15.4574 23.0027 14.9267Z" fill="#FFD949"/>
<path d="M13.8962 14.7913C7.4602 14.7913 2.24245 12.2723 2.24245 9.16525V6.6319C0.834587 7.51445 0.00134277 8.62111 0.00134277 9.86089C0.00134277 12.968 5.21909 15.6878 11.6551 15.6878C14.7541 15.6878 17.5681 15.0562 19.6554 14.0553C17.9562 14.5228 15.9917 14.7913 13.8962 14.7913Z" fill="#FFD949"/>
<path d="M13.8962 11.2024C7.46021 11.2024 2.24246 8.48259 2.24246 5.37552V9.1621C2.24246 12.2692 7.46021 14.7882 13.8962 14.7882C20.3322 14.7882 25.55 12.2692 25.55 9.1621V5.37552C25.55 8.48259 20.3322 11.2024 13.8962 11.2024Z" fill="#E4AF18"/>
<path d="M3.58713 11.8071C3.85158 12.0487 4.15144 12.2799 4.48357 12.4996V8.78336C4.15144 8.55477 3.85158 8.31497 3.58713 8.06531V11.8071Z" fill="#CE9912"/>
<path d="M23.3089 8.78335V12.4996C23.641 12.2804 23.9409 12.0486 24.2053 11.8071V8.06485C23.9413 8.31496 23.6414 8.55476 23.3089 8.78335Z" fill="#CE9912"/>
<path d="M5.38 13.0222C5.66328 13.1688 5.96269 13.3073 6.27645 13.4386V9.7663C5.96269 9.62825 5.66328 9.48258 5.38 9.32928V13.0222Z" fill="#CE9912"/>
<path d="M21.516 13.4382C21.8297 13.3073 22.1292 13.1688 22.4124 13.0218V9.32886C22.1292 9.48215 21.8297 9.62827 21.516 9.76587V13.4382Z" fill="#CE9912"/>
<path d="M7.17288 13.7774C7.46243 13.8765 7.7614 13.9688 8.06932 14.0549V10.418C7.7614 10.3266 7.46243 10.2284 7.17288 10.124V13.7774Z" fill="#CE9912"/>
<path d="M19.7231 14.0549C20.031 13.9688 20.33 13.8765 20.6196 13.7774V10.124C20.33 10.2284 20.031 10.3266 19.7231 10.418V14.0549Z" fill="#CE9912"/>
<path d="M9.414 14.3776C9.70669 14.4368 10.0061 14.4897 10.3104 14.5367V10.9312C10.0061 10.8806 9.70669 10.8241 9.414 10.7614V14.3776Z" fill="#CE9912"/>
<path d="M17.482 14.5372C17.7863 14.4897 18.0857 14.4368 18.3784 14.3781V10.7614C18.0857 10.8241 17.7863 10.8806 17.482 10.9317V14.5372Z" fill="#CE9912"/>
<path d="M12.1033 14.7434C12.3983 14.7653 12.6977 14.7806 12.9998 14.7913V11.2042C12.6977 11.1925 12.3983 11.1764 12.1033 11.1526V14.7434Z" fill="#CE9912"/>
<path d="M14.7927 14.7913C15.0948 14.7801 15.3942 14.7653 15.6891 14.7433V11.1522C15.3942 11.1759 15.0948 11.1921 14.7927 11.2042V14.7913Z" fill="#CE9912"/>
<path d="M25.55 5.37866C25.55 8.48573 20.3322 11.2055 13.8962 11.2055C7.46021 11.2055 2.24246 8.48573 2.24246 5.37866C2.24246 2.27159 7.46021 0 13.8962 0C20.3322 0 25.55 2.27159 25.55 5.37866Z" fill="#FCC62D"/>
<path d="M13.8962 9.39742C7.76365 9.39742 4.03534 7.01736 4.03534 5.37866C4.03534 3.74041 7.76365 1.34467 13.8962 1.34467C20.0288 1.34467 23.7571 3.74041 23.7571 5.37866C23.7571 7.01736 20.0288 9.39742 13.8962 9.39742Z" fill="#FFD949"/>
<path d="M16.9356 5.98779C17.3032 5.9098 17.5187 5.683 17.4394 5.42437L17.3543 5.14827C17.2919 4.94522 17.0495 4.7758 16.7523 4.69153C16.348 3.82781 15.3171 3.51495 13.786 3.51495C13.7133 3.51495 13.6425 3.51674 13.5726 3.51943C13.05 3.54094 12.5287 3.49074 12.1222 3.34193C11.9563 3.28142 11.8214 3.21822 11.7322 3.15234C11.6919 3.12275 11.5942 3.14158 11.5942 3.17923C11.5942 3.24467 11.5991 3.32221 11.6134 3.40827C11.669 3.74309 11.6027 3.69289 11.2719 4.02682C11.08 4.22135 10.9272 4.44546 10.8165 4.69287C10.5211 4.77759 10.28 4.94657 10.2177 5.14872L10.1325 5.42482C10.0532 5.68344 10.2688 5.91024 10.6363 5.98823C10.7412 6.64981 11.1908 7.23071 12.171 7.55074L12.1172 8.01554C12.1029 8.1397 11.9958 8.25444 11.8398 8.31092L9.86267 9.02449C11.0173 9.26653 12.3333 9.41265 13.786 9.41265C15.2185 9.41265 16.5179 9.27056 17.6608 9.03525L15.7268 8.31226C15.5739 8.25489 15.469 8.14104 15.4551 8.01913L15.4009 7.55074C16.3812 7.23071 16.8307 6.64936 16.9356 5.98779Z" fill="#F0C41B"/>
</svg>
